<?xml version="1.0" encoding="UTF-8" standalone="no"?>
<!-- Created with Inkscape (http://www.inkscape.org/) -->

<svg
   xmlns:dc="http://purl.org/dc/elements/1.1/"
   xmlns:cc="http://creativecommons.org/ns#"
   xmlns:rdf="http://www.w3.org/1999/02/22-rdf-syntax-ns#"
   xmlns:svg="http://www.w3.org/2000/svg"
   xmlns="http://www.w3.org/2000/svg"
   xmlns:sodipodi="http://sodipodi.sourceforge.net/DTD/sodipodi-0.dtd"
   xmlns:inkscape="http://www.inkscape.org/namespaces/inkscape"
   width="50mm"
   height="50.008732mm"
   viewBox="0 0 50 50.008731"
   version="1.1"
   id="svg8"
   inkscape:version="0.92.1 r15371"
   sodipodi:docname="on.svg">
  <defs
     id="defs2" />
  <sodipodi:namedview
     id="base"
     pagecolor="#ffffff"
     bordercolor="#666666"
     borderopacity="1.0"
     inkscape:pageopacity="0.0"
     inkscape:pageshadow="2"
     inkscape:zoom="0.12374369"
     inkscape:cx="60.679713"
     inkscape:cy="764.08881"
     inkscape:document-units="mm"
     inkscape:current-layer="layer1"
     showgrid="false"
     inkscape:window-width="784"
     inkscape:window-height="423"
     inkscape:window-x="596"
     inkscape:window-y="259"
     inkscape:window-maximized="0" />
  <metadata
     id="metadata5">
    <rdf:RDF>
      <cc:Work
         rdf:about="">
        <dc:format>image/svg+xml</dc:format>
        <dc:type
           rdf:resource="http://purl.org/dc/dcmitype/StillImage" />
        <dc:title></dc:title>
      </cc:Work>
    </rdf:RDF>
  </metadata>
  <g
     inkscape:label="Layer 1"
     inkscape:groupmode="layer"
     id="layer1"
     transform="translate(56.876269,-300.98976)">
    <path
       style="fill:#000000;stroke-width:0.0238527"
       d="m -32.659726,350.98666 c -8.097965,-0.25117 -15.547407,-4.40442 -20.057992,-11.18284 -2.283833,-3.4321 -3.682298,-7.38865 -4.055251,-11.47315 -0.08227,-0.901 -0.1033,-1.37689 -0.1033,-2.33757 0,-1.20741 0.06447,-2.21844 0.210665,-3.3036 0.514641,-3.82004 1.848591,-7.35834 3.978462,-10.55287 3.209104,-4.81324 8.030961,-8.40193 13.527555,-10.06794 4.975788,-1.50815 10.293881,-1.43356 15.218023,0.21344 3.995096,1.33627 7.592126,3.67031 10.460969,6.78792 2.384336,2.59109 4.2060701,5.67216 5.316694,8.99203 2.0746722,6.20158 1.6280567,13.01795 -1.2369916,18.87941 -2.9790704,6.09474 -8.3051464,10.73286 -14.7314934,12.82867 -2.725256,0.88879 -5.648395,1.30579 -8.52734,1.2165 z m 2.643774,-18.51685 c 6.167514,-3.56142 11.205831,-6.48285 11.196264,-6.49208 -0.02247,-0.0217 -22.496007,-12.99627 -22.511058,-12.99627 -0.0062,0 -0.01136,5.85558 -0.01136,13.01241 v 13.01241 l 0.05625,-0.0306 c 0.03094,-0.0168 5.102395,-2.94447 11.269909,-6.50589 z"
       id="path4528"
       inkscape:connector-curvature="0" />
  </g>
</svg>
