<?xml version="1.0" encoding="UTF-8" standalone="no"?>
<!-- Created with Inkscape (http://www.inkscape.org/) -->

<svg
   xmlns:dc="http://purl.org/dc/elements/1.1/"
   xmlns:cc="http://creativecommons.org/ns#"
   xmlns:rdf="http://www.w3.org/1999/02/22-rdf-syntax-ns#"
   xmlns:svg="http://www.w3.org/2000/svg"
   xmlns="http://www.w3.org/2000/svg"
   xmlns:sodipodi="http://sodipodi.sourceforge.net/DTD/sodipodi-0.dtd"
   xmlns:inkscape="http://www.inkscape.org/namespaces/inkscape"
   width="26.458334mm"
   height="28.814611mm"
   viewBox="0 0 26.458333 28.814611"
   version="1.1"
   id="svg8"
   inkscape:version="0.92.1 r15371"
   sodipodi:docname="missionIcon.svg">
  <defs
     id="defs2" />
  <sodipodi:namedview
     id="base"
     pagecolor="#ffffff"
     bordercolor="#666666"
     borderopacity="1.0"
     inkscape:pageopacity="0.0"
     inkscape:pageshadow="2"
     inkscape:zoom="0.7"
     inkscape:cx="67.507429"
     inkscape:cy="8.9759772"
     inkscape:document-units="mm"
     inkscape:current-layer="layer1"
     showgrid="false"
     inkscape:window-width="1366"
     inkscape:window-height="696"
     inkscape:window-x="0"
     inkscape:window-y="28"
     inkscape:window-maximized="1" />
  <metadata
     id="metadata5">
    <rdf:RDF>
      <cc:Work
         rdf:about="">
        <dc:format>image/svg+xml</dc:format>
        <dc:type
           rdf:resource="http://purl.org/dc/dcmitype/StillImage" />
        <dc:title></dc:title>
      </cc:Work>
    </rdf:RDF>
  </metadata>
  <g
     inkscape:label="Layer 1"
     inkscape:groupmode="layer"
     id="layer1"
     transform="translate(-62.269611,-122.39362)">
    <path
       style="fill:#00549f;fill-opacity:0.94117647;stroke-width:0.0598866"
       d="m 79.265391,151.18168 c -0.652784,-0.0912 -1.350808,-0.56766 -1.696853,-1.15814 -0.365659,-0.62395 -0.415405,-1.52595 -0.119772,-2.1717 0.31067,-0.67859 0.808346,-1.11662 1.517561,-1.33567 1.677817,-0.51822 3.295951,0.8844 3.054773,2.64793 -0.18265,1.33556 -1.377334,2.21024 -2.755709,2.01758 z m 1.072332,-1.46631 c 0.342018,-0.2721 0.511769,-0.63959 0.474836,-1.02796 -0.113452,-1.19305 -1.658121,-1.48419 -2.203429,-0.4153 -0.271419,0.53203 -0.03375,1.26369 0.498251,1.53386 0.384867,0.19545 0.920345,0.15602 1.230342,-0.0906 z m -9.518649,-0.50961 c -1.147235,-0.11065 -2.392088,-0.44484 -3.232663,-0.86783 -0.669154,-0.33673 -1.109604,-0.65588 -1.63692,-1.18613 -1.012016,-1.01765 -1.632241,-2.43561 -1.817374,-4.15488 -0.04479,-0.41593 -0.06635,-2.97348 -0.06635,-7.86923 v -7.25304 l -0.452625,0.59301 c -0.248946,0.32615 -0.496638,0.62669 -0.550426,0.66786 -0.289069,0.22126 -0.793941,-0.0438 -0.793104,-0.41634 4.53e-4,-0.16347 0.168298,-0.41412 0.974912,-1.45511 0.570151,-0.73582 1.043928,-1.29093 1.141876,-1.33789 0.304314,-0.14592 0.439042,-0.0258 1.473523,1.31395 1.073968,1.39086 1.149714,1.54706 0.880642,1.81614 -0.108376,0.10837 -0.217982,0.15411 -0.369302,0.15411 -0.249844,0 -0.335182,-0.0794 -0.88869,-0.82673 l -0.36879,-0.49794 -0.01704,7.08518 c -0.01082,4.50382 0.0054,7.33812 0.04449,7.77946 0.275271,3.10648 1.907687,4.76834 5.272514,5.3676 0.346518,0.0617 1.139997,0.10273 2.485295,0.12848 2.109306,0.0404 2.197782,0.0536 2.308502,0.34481 0.08926,0.23478 0.06979,0.31828 -0.118036,0.5061 l -0.175051,0.17505 -1.786234,-0.008 c -0.982428,-0.004 -2.021545,-0.0308 -2.309147,-0.0585 z m 1.506813,-4.74285 c -0.639853,-0.1806 -1.222481,-0.67951 -1.516921,-1.29896 -0.236624,-0.49781 -0.288201,-1.24177 -0.122588,-1.7683 0.220676,-0.70158 0.778469,-1.26835 1.498423,-1.52251 0.324449,-0.11454 0.476081,-0.13301 0.918342,-0.11187 0.446394,0.0213 0.589771,0.0555 0.911395,0.21689 0.209917,0.10536 0.453422,0.25559 0.541123,0.33386 0.692462,0.61793 0.988406,1.62519 0.733557,2.49672 -0.198002,0.67713 -0.771744,1.32026 -1.389975,1.55809 -0.417139,0.16046 -1.180182,0.20706 -1.573356,0.0961 z m 1.232047,-1.31266 c 0.372608,-0.1944 0.569185,-0.55664 0.567797,-1.04631 -0.0014,-0.43882 -0.178077,-0.77188 -0.508113,-0.95701 -0.521705,-0.29264 -1.03467,-0.22782 -1.445096,0.1826 -0.959989,0.95999 0.175332,2.45203 1.385412,1.82072 z m 5.334478,1.26905 c -0.671587,-0.23837 -1.122261,-0.64725 -1.423884,-1.2918 -0.319164,-0.68204 -0.278234,-1.55564 0.103392,-2.20683 0.213104,-0.36364 0.689456,-0.79061 1.093119,-0.97981 0.306367,-0.14359 0.411822,-0.1605 1.001188,-0.1605 0.607443,0 0.686738,0.0137 1.018071,0.17598 1.812562,0.88772 1.810728,3.50691 -0.0031,4.35568 -0.537162,0.25136 -1.260665,0.29476 -1.788839,0.10728 z m 1.235851,-1.19403 c 0.02356,-6.8e-4 0.142322,-0.0888 0.263918,-0.19555 0.542905,-0.47667 0.581813,-1.22295 0.08944,-1.71533 -0.742061,-0.74206 -1.983179,-0.21711 -1.983179,0.83882 0,0.72064 0.681523,1.27485 1.377393,1.1201 0.115281,-0.0256 0.228875,-0.0473 0.252433,-0.048 z m 5.601237,1.25106 c -0.893851,-0.21067 -1.645781,-1.04597 -1.771931,-1.96839 -0.146584,-1.07185 0.384475,-2.0846 1.337998,-2.5516 0.331334,-0.16227 0.410627,-0.17598 1.018073,-0.17598 0.589365,0 0.694821,0.0169 1.001187,0.1605 0.931282,0.43649 1.489426,1.39224 1.404656,2.40528 -0.122339,1.46198 -1.539941,2.47194 -2.989983,2.13019 z m 1.265405,-1.39018 c 0.50601,-0.33486 0.646845,-1.14929 0.281557,-1.62821 -0.437598,-0.57372 -1.163903,-0.65675 -1.691649,-0.19338 -0.413092,0.3627 -0.537674,0.87204 -0.325425,1.33047 0.315839,0.68218 1.108044,0.90636 1.735517,0.49112 z m -14.369962,-4.70852 -0.175051,-0.17505 2.26e-4,-2.47493 c 2.26e-4,-2.6727 0.04309,-3.20179 0.321181,-3.96793 0.467346,-1.28752 1.471499,-2.11226 2.989338,-2.45523 0.640817,-0.1448 1.082304,-0.19858 3.0018,-0.3657 0.589866,-0.0514 1.252281,-0.1312 1.472033,-0.17742 1.332699,-0.28035 1.971215,-0.80309 2.304401,-1.88657 0.126546,-0.41151 0.212971,-2.50034 0.100576,-2.43088 -0.0378,0.0234 -0.233801,0.26322 -0.435557,0.53301 -0.201755,0.26979 -0.420333,0.53769 -0.48573,0.59533 -0.175778,0.15494 -0.50037,0.13472 -0.677277,-0.0422 -0.28014,-0.28014 -0.229433,-0.38877 0.815217,-1.74648 0.529218,-0.68782 1.007562,-1.28545 1.062989,-1.32809 0.05543,-0.0426 0.208043,-0.0696 0.33915,-0.0599 0.227518,0.0168 0.263776,0.0504 0.796087,0.73627 1.321923,1.70335 1.450832,1.88761 1.450832,2.07376 0,0.23218 -0.286213,0.5313 -0.508367,0.5313 -0.255941,0 -0.35998,-0.0889 -0.851559,-0.72753 l -0.466615,-0.60622 -0.04011,1.131 c -0.06032,1.7008 -0.298882,2.43021 -1.036504,3.16911 -0.840356,0.84181 -1.955265,1.16515 -4.642557,1.34643 -1.764591,0.11903 -2.577708,0.29828 -3.211588,0.70798 -0.41216,0.26639 -0.681225,0.56828 -0.896328,1.00568 -0.336404,0.68405 -0.341764,0.73675 -0.378973,3.72536 l -0.03455,2.77502 -0.168028,0.14445 c -0.224808,0.19327 -0.430959,0.18349 -0.645048,-0.0306 z m 6.310927,-0.96015 c -0.259077,-0.15797 -0.393878,-0.38061 -0.393878,-0.65053 0,-0.31649 0.141385,-0.55381 0.52537,-0.88186 l 0.332445,-0.28402 -0.390799,-0.4048 c -0.373973,-0.38737 -0.390797,-0.41755 -0.390797,-0.70119 0,-0.3852 0.186873,-0.67471 0.50271,-0.77881 0.347029,-0.11438 0.626094,-0.012 1.058462,0.38829 l 0.366037,0.33889 0.297302,-0.33894 c 0.340809,-0.38854 0.598908,-0.49704 0.954545,-0.40127 0.424733,0.11436 0.66096,0.51471 0.564054,0.95592 -0.02378,0.10826 -0.188363,0.34541 -0.387706,0.55863 l -0.346386,0.37051 0.350495,0.38086 c 0.389941,0.42372 0.471352,0.65659 0.359763,1.02904 -0.08066,0.26921 -0.294873,0.45783 -0.580912,0.51149 -0.323338,0.0607 -0.495146,-0.0171 -0.903091,-0.40886 l -0.382485,-0.36728 -0.3425,0.33735 c -0.489067,0.48171 -0.815451,0.57656 -1.192629,0.34658 z m 6.229988,-3.24033 c -0.373846,-0.18505 -0.529459,-0.58944 -0.379054,-0.98504 0.03309,-0.087 0.22814,-0.31562 0.433445,-0.50799 l 0.373282,-0.34976 -0.368975,-0.38425 c -0.443141,-0.46148 -0.5091,-0.67536 -0.331848,-1.07606 0.120779,-0.27304 0.397476,-0.46594 0.66835,-0.46594 0.232327,0 0.540075,0.17013 0.866959,0.47928 l 0.322714,0.30521 0.285884,-0.33113 c 0.429482,-0.49747 0.872963,-0.57978 1.27971,-0.23753 0.406992,0.34246 0.354711,0.83502 -0.141899,1.33687 -0.183523,0.18546 -0.333679,0.36429 -0.333679,0.3974 0,0.0331 0.148687,0.20703 0.330413,0.3865 0.36324,0.35873 0.462645,0.59726 0.387585,0.93006 -0.100349,0.44493 -0.556192,0.70842 -0.982299,0.56779 -0.120876,-0.0399 -0.381906,-0.22264 -0.580072,-0.4061 l -0.3603,-0.33358 -0.340877,0.33575 c -0.491918,0.4845 -0.70524,0.54845 -1.129339,0.33852 z m -13.712077,-6.81834 c -0.270179,-0.16475 -0.381282,-0.35444 -0.381282,-0.65098 0,-0.34974 0.066,-0.46359 0.49881,-0.86043 l 0.36941,-0.33871 -0.369643,-0.38495 c -0.445859,-0.46432 -0.510084,-0.67533 -0.32968,-1.08317 0.179753,-0.40636 0.568626,-0.5595 1.009966,-0.39774 0.09272,0.034 0.309515,0.2159 0.481762,0.40424 l 0.313175,0.34244 0.315635,-0.34602 c 0.363476,-0.39848 0.59875,-0.49565 0.962771,-0.39763 0.442091,0.11905 0.667689,0.546 0.530478,1.00395 -0.03895,0.12998 -0.198999,0.35057 -0.394297,0.54344 l -0.328738,0.32465 0.353722,0.37813 c 0.394785,0.42203 0.479263,0.66249 0.365793,1.04123 -0.08066,0.26921 -0.294873,0.45782 -0.580912,0.51149 -0.323337,0.0606 -0.495148,-0.0171 -0.903092,-0.40886 l -0.382486,-0.36728 -0.3425,0.33735 c -0.487489,0.48015 -0.815643,0.57644 -1.188892,0.34885 z"
       id="path4494"
       inkscape:connector-curvature="0"
       sodipodi:nodetypes="ssscssscccscsscsccccscscssccccscccccccsccccccscsccssccscscsccccssccsscsccsccsccccccsscccscccsccssscccsscsccccssscssscccscsccccccssccccccsccccsscccsccccsccssccccscscccscccc" />
  </g>
</svg>
